<svg xmlns="http://www.w3.org/2000/svg" viewBox="0 0 24 24" fill="none">
  <g stroke="#FFFFFF" stroke-width=".55" stroke-linejoin="round">
    <path d="M9.35 10.55C6.85 8.35 7.05 5.25 9.35 2.9c2.3 2.35 2.5 5.45 0 7.65Z" fill="#F39AB9"/>
    <path d="M9.35 10.55C6.85 8.35 7.05 5.25 9.35 2.9c2.3 2.35 2.5 5.45 0 7.65Z" fill="#F5A7C2" transform="rotate(72 9.35 10.55)"/>
    <path d="M9.35 10.55C6.85 8.35 7.05 5.25 9.35 2.9c2.3 2.35 2.5 5.45 0 7.65Z" fill="#F08FAF" transform="rotate(144 9.35 10.55)"/>
    <path d="M9.35 10.55C6.85 8.35 7.05 5.25 9.35 2.9c2.3 2.35 2.5 5.45 0 7.65Z" fill="#F5A7C2" transform="rotate(216 9.35 10.55)"/>
    <path d="M9.35 10.55C6.85 8.35 7.05 5.25 9.35 2.9c2.3 2.35 2.5 5.45 0 7.65Z" fill="#F39AB9" transform="rotate(288 9.35 10.55)"/>
  </g>
  <circle cx="9.35" cy="10.55" r="1.7" fill="#FFF8FB" stroke="#E779A1" stroke-width=".8"/>
  <circle cx="17.1" cy="16.85" r="5.1" fill="#FAFFFC" stroke="#3E9F67" stroke-width="1.55"/>
  <path d="m14.65 16.8 1.55 1.6 3.35-3.55" stroke="#318956" stroke-width="1.75" stroke-linecap="round" stroke-linejoin="round"/>
</svg>
